<svg xmlns="http://www.w3.org/2000/svg" viewBox="0 0 500 500"><g id="freepik--background-complete--inject-70"><rect y="382.4" width="500" height="0.25" style="fill:#ebebeb"></rect><rect x="416.78" y="398.49" width="33.12" height="0.25" style="fill:#ebebeb"></rect><rect x="322.53" y="401.21" width="8.69" height="0.25" style="fill:#ebebeb"></rect><rect x="396.59" y="389.21" width="19.19" height="0.25" style="fill:#ebebeb"></rect><rect x="52.46" y="390.89" width="43.19" height="0.25" style="fill:#ebebeb"></rect><rect x="104.56" y="390.89" width="6.33" height="0.25" style="fill:#ebebeb"></rect><rect x="131.47" y="395.11" width="93.68" height="0.25" style="fill:#ebebeb"></rect><path d="M237,337.8H43.91a5.71,5.71,0,0,1-5.7-5.71V60.66A5.71,5.71,0,0,1,43.91,55H237a5.71,5.71,0,0,1,5.71,5.71V332.09A5.71,5.71,0,0,1,237,337.8ZM43.91,55.2a5.46,5.46,0,0,0-5.45,5.46V332.09a5.46,5.46,0,0,0,5.45,5.46H237a5.47,5.47,0,0,0,5.46-5.46V60.66A5.47,5.47,0,0,0,237,55.2Z" style="fill:#ebebeb"></path><path d="M453.31,337.8H260.21a5.72,5.72,0,0,1-5.71-5.71V60.66A5.72,5.72,0,0,1,260.21,55h193.1A5.71,5.71,0,0,1,459,60.66V332.09A5.71,5.71,0,0,1,453.31,337.8ZM260.21,55.2a5.47,5.47,0,0,0-5.46,5.46V332.09a5.47,5.47,0,0,0,5.46,5.46h193.1a5.47,5.47,0,0,0,5.46-5.46V60.66a5.47,5.47,0,0,0-5.46-5.46Z" style="fill:#ebebeb"></path><path d="M307.12,304.52c-8.45-15.12-24.87-22-36.68-15.42s-14.52,24.21-6.07,39.32,24.88,22,36.68,15.42S315.58,319.64,307.12,304.52Z" style="fill:#4E9257"></path><path d="M403.11,251.53,374,198.07s-20.3,43.56-49.5,59.88l14.82,26.49,2.33,4.17,14.83,26.53c29.2-16.32,76.93-10.83,76.93-10.83Z" style="fill:#f0f0f0"></path><path d="M307.12,304.52c-8.45-15.12-24.87-22-36.68-15.42s-14.52,24.21-6.07,39.32,24.88,22,36.68,15.42S315.58,319.64,307.12,304.52Z" style="fill:#f0f0f0"></path><path d="M305.15,335.82s21,30.44,40.65,41.56a3.27,3.27,0,0,0,4.12-.86l16.73-20.77a3.29,3.29,0,0,0-1.22-5.08c-8.28-3.63-27.55-13.05-38.68-26.19C312.3,307.41,305.15,335.82,305.15,335.82Z" style="fill:#4E9257"></path><path d="M305.15,335.82s21,30.44,40.65,41.56a3.27,3.27,0,0,0,4.12-.86l16.73-20.77a3.29,3.29,0,0,0-1.22-5.08c-8.28-3.63-27.55-13.05-38.68-26.19C312.3,307.41,305.15,335.82,305.15,335.82Z" style="fill:#e0e0e0"></path><path d="M433.16,305.85c-6.69,3.74-25.68-17.47-42.4-47.39s-24.86-57.19-18.17-60.93S398.27,215,415,244.92,439.85,302.11,433.16,305.85Z" style="fill:#fff"></path><path d="M430.43,297c-5,2.8-19.81-13.89-33.78-37.89-.81-1.35-1.6-2.77-2.39-4.19-1-1.71-1.89-3.38-2.76-5-12.82-24.2-19.13-45.09-14.17-47.86,5.34-3,21.57,15.86,36.24,42.09S435.77,294,430.43,297Z" style="fill:#263238;opacity:0.4;isolation:isolate"></path><path d="M298.34,349.4s-7.19-5.11-20.21-28.4c-14.09-25.19-13.7-32.25-13.7-32.25l65.17-36.44s.78,9.14,14,32.78C356.71,308.55,363.51,313,363.51,313Z" style="fill:#e0e0e0"></path><path d="M396.65,259.14c-.81-1.35-1.6-2.77-2.39-4.19-1-1.71-1.89-3.38-2.76-5l6.75-2.13a3.13,3.13,0,0,1,3.69,1.71l.54,1a3.14,3.14,0,0,1-.48,4Z" style="fill:#fff"></path><path d="M396.65,259.14c-.81-1.35-1.6-2.77-2.39-4.19-1-1.71-1.89-3.38-2.76-5l6.75-2.13a3.13,3.13,0,0,1,3.69,1.71l.54,1a3.14,3.14,0,0,1-.48,4Z" style="opacity:0.2;isolation:isolate"></path><path d="M442.55,184.24H424.13c-4.63,0-8.93,3-8.93,7.63v12.18c0,4.64,4.3,7.4,8.93,7.4h7.26l1.95,7.8,2-7.8h7.26c4.63,0,8.93-2.76,8.93-7.4V191.87C451.48,187.24,447.18,184.24,442.55,184.24Z" style="fill:#e0e0e0"></path><path d="M396,118.73c-3.56-3.19-7.72,1.13-7.72,1.13s-4.17-4.32-7.72-1.13c-5.08,4.54,2.3,12.67,7.72,14.3C393.67,131.4,401.06,123.27,396,118.73Z" style="fill:#e0e0e0"></path><path d="M78.42,235.47c-6.6-5.9-14.32,2.11-14.32,2.11s-7.72-8-14.32-2.11C40.37,243.9,54.06,259,64.1,262,74.15,259,87.84,243.9,78.42,235.47Z" style="fill:#e0e0e0"></path></g><g id="freepik--Shadow--inject-70"><ellipse id="freepik--path--inject-70" cx="248.06" cy="416.24" rx="193.89" ry="11.32" style="fill:#f5f5f5"></ellipse></g><g id="freepik--Character--inject-70"><path d="M361.55,167s1.74.78-.18,3.8-1.9-.32-1.9-.32Z" style="fill:#e4897b"></path><path d="M330.11,166.21s5.73-.12,10.06,13.59,3.23,11.65,3.23,11.65L354.68,176l3.77,1.85s-9,28-14.17,33-13-5.76-13.35-7.67-1.85-25.43-1.85-25.43Z" style="fill:#4E9257"></path><path d="M355.6,175.87c.24,0,3.87,1.77,3.87,1.77l-.83,1.83-4.43-2Z" style="fill:#4E9257"></path><path d="M355.6,175.87c.24,0,3.87,1.77,3.87,1.77l-.83,1.83-4.43-2Z" style="fill:#fff;opacity:0.4"></path><line x1="366.55" y1="158.38" x2="339.67" y2="198.75" style="fill:none;stroke:#263238;stroke-miterlimit:10;stroke-width:2px"></line><path d="M307.46,122.93s5.76-7.38,16-3.6,11.24,19.31,9.95,27.33-2.76,11.14-1.1,12.43c0,0-9.19,4.07-14.13.61S315,149.54,315,149.54l1.94-7.45Z" style="fill:#263238"></path><path d="M307.46,123.5s-6.86-1.65-8.68,15.46c-2,19.1,3.05,21.87,14.58,21.76a27.31,27.31,0,0,1,0-9.18c.91-4.46-1.75-23.72-1.75-23.72Z" style="fill:#263238"></path><polygon points="353.95 404.27 346.95 405.02 344.75 395.39 342.75 386.56 350.92 384.31 352.53 394.88 353.95 404.27" style="fill:#e4897b"></polygon><path d="M345.4,404.73c-.06-.77,9.49-1.19,9.49-1.19s6.47,5.31,12.29,6,3,4.46-3.33,5.15l-15.67,1.68C343.67,416.9,346.07,412.76,345.4,404.73Z" style="fill:#263238"></path><path d="M359.47,405.5a15.63,15.63,0,0,1-3.33-.73s0,.08,0,.06h0s.07.15.07.15h0l.7,0s0-.46,0-.49l-.9-.64h0s-.07.21-.06.17a4.92,4.92,0,0,1,1.79-2.78,1.43,1.43,0,0,1,1.23-.1c.45.16.69.41.71.73,0,.5-.6,1.08-1.32,1.57a4,4,0,0,1,2.15,0,1,1,0,0,1,.57.59.91.91,0,0,1-.12,1A2,2,0,0,1,359.47,405.5Zm-2.54-1.1c1.46.45,3.26.78,3.66.37,0,0,.15-.15,0-.51a.49.49,0,0,0-.31-.3C359.57,403.64,358,404.05,356.93,404.4Zm1.58-2.79a1,1,0,0,0-.54.12,4.19,4.19,0,0,0-1.41,2.22c1.35-.69,2.63-1.57,2.61-2,0-.14-.24-.24-.38-.28A.71.71,0,0,0,358.51,401.61Z" style="fill:#4E9257"></path><polygon points="352.55 395.09 344.77 395.58 342.76 386.65 350.92 384.36 352.55 395.09" style="opacity:0.2;isolation:isolate"></polygon><polygon points="307.57 403.83 300.54 403.35 300.04 393.63 299.6 384.65 308.03 383.89 307.79 394.45 307.57 403.83" style="fill:#e4897b"></polygon><path d="M299.05,403.08c.07-.78,9.54.48,9.54.48s5.46,6.35,11.06,8.07,2.18,4.93-4.17,4.49l-15.73-1.06C295.23,414.75,298.31,411.1,299.05,403.08Z" style="fill:#263238"></path><path d="M313.44,406.33a12.13,12.13,0,0,1-3.87-1.47.27.27,0,0,1-.08-.07h0l0-.06a.25.25,0,0,1,0-.19c0-.09,1-2.26,2.31-2.71A1.47,1.47,0,0,1,313,402c.42.23.62.52.58.84-.07.5-.78.95-1.58,1.31a4,4,0,0,1,2.12.38,1,1,0,0,1,.46.68.9.9,0,0,1-.3,1A1.26,1.26,0,0,1,313.44,406.33Zm-3-1.57c1.36.69,3.07,1.33,3.54,1,0,0,.17-.12.1-.5a.57.57,0,0,0-.25-.35C313.19,404.46,311.54,404.59,310.46,404.76Zm1.88-2.51a.89.89,0,0,0-.39.06,4.19,4.19,0,0,0-1.78,1.93c1.45-.44,2.86-1.09,2.92-1.51,0-.14-.2-.27-.32-.34A1,1,0,0,0,312.34,402.25Z" style="fill:#4E9257"></path><polygon points="307.76 394.83 300.02 393.96 299.59 384.81 308.02 383.97 307.76 394.83" style="opacity:0.2;isolation:isolate"></polygon><path d="M353.57,389.64l-11.51,1.24c-9.54-29.38-16.09-53.81-20.52-74-2.38-10.9-4.11-20.57-5.39-29.13l-1.54,31.18L309.87,389l-11.67-.79c-19.09-135,3.73-169.58,3.73-169.58l34.14-.55c.94,5.1.42,15.3.61,21l.76,11.26L346,319.14Z" style="fill:#4E9257"></path><g style="opacity:0.2"><path d="M353.57,389.64l-11.51,1.24c-9.54-29.38-16.09-53.81-20.52-74-2.38-10.9-4.11-20.57-5.39-29.13l-1.54,31.18L309.87,389l-11.67-.79c-19.09-135,3.73-169.58,3.73-169.58l34.14-.55c.94,5.1.42,15.3.61,21l.76,11.26L346,319.14Z" style="fill:#fff"></path></g><polygon points="340.37 389.35 354.8 385.63 354.2 391.62 342.28 394.55 340.37 389.35" style="fill:#263238"></polygon><polygon points="296.77 387.06 311.63 385.9 310 391.69 297.74 392.51 296.77 387.06" style="fill:#263238"></polygon><path d="M336.09,218l-34.5.64a121.77,121.77,0,0,0-1.94-25.43c-.6-3.34-1.38-7.08-2.41-11.41q-.83-3.47-1.86-7.47-.78-3-1.72-6.47a101.75,101.75,0,0,1,14.47-2.47,110,110,0,0,1,15.51-.58c1.23.07,2.33.19,3.3.34a10.12,10.12,0,0,1,8.18,7.26c.48,1.68,1,3.73,1.44,6.15C337.77,185,339.14,193.65,336.09,218Z" style="fill:#4E9257"></path><g style="opacity:0.2"><path d="M336.09,218l-34.5.64a121.77,121.77,0,0,0-1.94-25.43c-.6-3.34-1.38-7.08-2.41-11.41q-.83-3.47-1.86-7.47-.78-3-1.72-6.47a101.75,101.75,0,0,1,14.47-2.47,110,110,0,0,1,15.51-.58c1.23.07,2.33.19,3.3.34a10.12,10.12,0,0,1,8.18,7.26c.48,1.68,1,3.73,1.44,6.15C337.77,185,339.14,193.65,336.09,218Z"></path></g><path d="M320.3,170.74c-8.38-1.66-10.68-5.44-10.68-5.44,5.71-4.7,1.85-13.76,1.85-13.76l10,2.58a30.88,30.88,0,0,0-.69,4.26c-.49,6.17,2.3,6.42,2.3,6.42C324.68,168.26,320.3,170.74,320.3,170.74Z" style="fill:#e4897b"></path><path d="M321.51,154.12a30.88,30.88,0,0,0-.69,4.26c-6.87-.47-9.35-6.84-9.35-6.84Z" style="opacity:0.2;isolation:isolate"></path><path d="M317.81,125.3c8.88.11,11.68,4.9,12.21,14,.66,11.45-2,19.54-13,17C302,152.79,303.07,125.11,317.81,125.3Z" style="fill:#e4897b"></path><path d="M323.64,138.78a18.61,18.61,0,0,0,2.54,3.72,2.44,2.44,0,0,1-2.36,1Z" style="fill:#de5753"></path><path d="M318.85,132.71A4.6,4.6,0,0,0,315,134" style="fill:none;stroke:#263238;stroke-linecap:round;stroke-linejoin:round;stroke-width:0.707336px"></path><path d="M324.91,132.22a4.14,4.14,0,0,1,3.53.78" style="fill:none;stroke:#263238;stroke-linecap:round;stroke-linejoin:round;stroke-width:0.707336px"></path><path d="M307.92,140.13s6.41-6.41,5.85-12c0,0,15.52-7.79,16.16,10.08,0,0,1.92-15.83-13.33-16.38s-15.48,21.77-7.69,28.53C308.91,150.31,305.29,144.66,307.92,140.13Z" style="fill:#263238"></path><path d="M309.35,142a3.91,3.91,0,0,0-4.15-3.61c-2.76.27-4.14,5.9,2.69,7.34C308.86,146,309.43,145,309.35,142Z" style="fill:#e4897b"></path><path d="M321.54,316.86c-2.38-10.9-4.16-20.57-5.45-29.13a264.2,264.2,0,0,1,4.2-29.72S322.6,296.86,321.54,316.86Z" style="opacity:0.2;isolation:isolate"></path><path d="M326.44,146.45a21.42,21.42,0,0,0,.09,3.25c-.19.05-.37.11-.56.15-2.51.64-3.89.11-4.66-.68a3.29,3.29,0,0,1-.78-1.38,3.43,3.43,0,0,1-.15-.89,12.47,12.47,0,0,0,5.2-.24C326.11,146.55,326.44,146.45,326.44,146.45Z" style="fill:#263238"></path><path d="M325.59,146.66v1c-2.13.6-4.09.7-5,.17a3.53,3.53,0,0,1-.17-.89A12.18,12.18,0,0,0,325.59,146.66Z" style="fill:#fff"></path><path d="M326,149.85c-2.51.64-3.89.11-4.66-.68a8.57,8.57,0,0,1,2.93-.16A3.21,3.21,0,0,1,326,149.85Z" style="fill:#de5753"></path><path d="M328.71,136.78a1.8,1.8,0,0,0-2.82.5" style="fill:none;stroke:#263238;stroke-linecap:round;stroke-linejoin:round;stroke-width:0.488033px"></path><path d="M321.13,137.49s-2.67-2.1-4.36.91" style="fill:none;stroke:#263238;stroke-linecap:round;stroke-linejoin:round;stroke-width:0.488033px"></path><path d="M311.61,127.25s9.62,4.15,16.62,2.89-6-7.25-6-7.25l-6.67-.46Z" style="fill:#263238"></path><path d="M314,126.43a3.39,3.39,0,0,1,.41,1c.09.32.14.64.2,1a10.23,10.23,0,0,1,.09,1.91A15,15,0,0,1,314,134a20.69,20.69,0,0,1-1.38,3.45c-.27.56-.6,1.09-.89,1.63l-1,1.56.89-1.62c.25-.56.54-1.1.77-1.67a21.42,21.42,0,0,0,1.13-3.48,15,15,0,0,0,.36-3.59,11.57,11.57,0,0,0-.2-1.76c-.07-.28-.14-.57-.23-.84a2.84,2.84,0,0,0-.31-.67Z" style="fill:#263238"></path><path d="M313,126.59a12.1,12.1,0,0,1,.94.85l.87.78a18.24,18.24,0,0,0,1.88,1.39,10.74,10.74,0,0,0,4.36,1.67,10.9,10.9,0,0,1-4.61-1.24,16.22,16.22,0,0,1-2.08-1.23c-.33-.22-.66-.46-1-.7s-.67-.52-.9-.66Z" style="fill:#263238"></path><rect x="354.38" y="147.4" width="21.51" height="10.25" rx="1.85" style="fill:#4E9257"></rect><rect x="355.79" y="147.4" width="21.51" height="10.25" rx="1.85" style="fill:#4E9257"></rect><rect x="355.79" y="147.4" width="21.51" height="10.25" rx="1.85" style="fill:#fff;opacity:0.2"></rect><rect x="362.84" y="145.71" width="7.42" height="1.68" style="fill:#263238"></rect><rect x="364.58" y="147.4" width="3.94" height="10.64" style="fill:#263238"></rect><rect x="362.84" y="157.54" width="7.42" height="1.68" style="fill:#263238"></rect><path d="M362.13,170.79c-.19-.24-2.08-1.84-3-1.38s-3.64,5-3.18,6.44,3.18,2.62,4.32,1.79S362.71,171.52,362.13,170.79Z" style="fill:#e4897b"></path><path d="M293.6,247.93a51.69,51.69,0,0,0,26.78-6l-25.45-1.49C294.47,242.71,294,245.21,293.6,247.93Z" style="opacity:0.1"></path><path d="M298.34,208.72c-9.23,15.06-10.72,33.69-10.72,33.69,15.83,7.41,32.76-.51,32.76-.51s-6.51-19.14-4.58-40.33-6.18-36.27-6.18-36.27l-.09,0-1.4.13a101.75,101.75,0,0,0-14.47,2.47S306.5,195.42,298.34,208.72Z" style="fill:#4E9257"></path><path d="M298.34,208.72c-9.23,15.06-10.72,33.69-10.72,33.69,15.83,7.41,32.76-.51,32.76-.51s-6.51-19.14-4.58-40.33-6.18-36.27-6.18-36.27l-.09,0-1.4.13a101.75,101.75,0,0,0-14.47,2.47S306.5,195.42,298.34,208.72Z" style="fill:#fff;opacity:0.4"></path><path d="M337.7,186.85l0-.34a71.81,71.81,0,0,0-1.11-7.95c-.45-2.42-1-4.47-1.44-6.15a10.12,10.12,0,0,0-8.18-7.26c-1-.15-2.07-.27-3.3-.34h-.52c0,.08,6.13,11.07,5.11,30-.77,14.53.66,40.59,3.86,45.57,0,0,8.25-.68,11.67-4.61,0,0-3.59-19-4.09-26.6S337.7,186.85,337.7,186.85Z" style="fill:#4E9257"></path><path d="M337.7,186.85l0-.34a71.81,71.81,0,0,0-1.11-7.95c-.45-2.42-1-4.47-1.44-6.15a10.12,10.12,0,0,0-8.18-7.26c-1-.15-2.07-.27-3.3-.34h-.52c0,.08,6.13,11.07,5.11,30-.77,14.53.66,40.59,3.86,45.57,0,0,8.25-.68,11.67-4.61,0,0-3.59-19-4.09-26.6S337.7,186.85,337.7,186.85Z" style="fill:#fff;opacity:0.4"></path><path d="M336.94,199.1s.64-2.92,1.77-3.61,6.9-2.71,7.77-2,1.62,7.1.23,8.07-6.35,1.74-7,1.54Z" style="fill:#e4897b"></path><path d="M341.62,198.5s.77-3,0-4c-.55-.66,1.74-2.23,1.78-3.09s-.33-.87-.33-.87c-2.58,2.25-5.76,3.23-6.13,8.52Z" style="fill:#e4897b"></path><path d="M336.94,199.1l-6.31,2.14s.77,5.21,1.09,5.09l7.95-3.21Z" style="fill:#e4897b"></path><path d="M293.66,167.86s-5.85.29-6,14,4.5,34.41,11.17,34.78,36.47-9.55,36.52-10.1-1.92-7.38-1.92-7.38S309.25,206,304.74,204,306.91,166.86,293.66,167.86Z" style="fill:#4E9257"></path><path d="M322.57,138.19l.11-.06a2.23,2.23,0,0,1,2,.06h0" style="fill:none;stroke:#e0e0e0;stroke-miterlimit:10;stroke-width:0.5px"></path><circle cx="318.33" cy="138.6" r="4.27" style="fill:none;stroke:#e0e0e0;stroke-miterlimit:10;stroke-width:0.5px"></circle><circle cx="328.95" cy="138.19" r="4.27" style="fill:none;stroke:#e0e0e0;stroke-miterlimit:10;stroke-width:0.5px"></circle><path d="M329,133.67a4.51,4.51,0,0,0-4.48,4.16,2.43,2.43,0,0,0-1.7,0,4.49,4.49,0,1,0,.07.76c0-.09,0-.17,0-.25a1.93,1.93,0,0,1,1.63,0,4.51,4.51,0,1,0,4.5-4.69Zm-10.62,9a4,4,0,1,1,4-4A4,4,0,0,1,318.33,142.62ZM329,142.2a4,4,0,1,1,4-4A4,4,0,0,1,329,142.2Z" style="fill:#e0e0e0"></path></g><g id="freepik--Device--inject-70"><rect x="98.97" y="76.77" width="188.74" height="339.47" rx="10.4" style="fill:#2e353a"></rect><path d="M281.4,88.14V404.26a4.62,4.62,0,0,1-4.69,4.62H109.59a4.14,4.14,0,0,1-4.19-4.24V87.76A3.73,3.73,0,0,1,109,83.88h41.78a2.94,2.94,0,0,1,2.69,1.88L155.19,90a2.94,2.94,0,0,0,2.69,1.86H229a2.91,2.91,0,0,0,2.69-1.83l1.73-4.28a3,3,0,0,1,2.69-1.89H277.3A4.22,4.22,0,0,1,281.4,88.14Z" style="fill:#4E9257"></path><circle cx="189.41" cy="84.29" r="2.42" style="fill:#fff;opacity:0.6000000000000001;isolation:isolate"></circle><path d="M196.72,84.29a1.55,1.55,0,1,1-1.55-1.54A1.55,1.55,0,0,1,196.72,84.29Z" style="fill:#fff;opacity:0.6000000000000001;isolation:isolate"></path><path d="M277.3,83.88H236.12a3,3,0,0,0-2.69,1.89l-1.73,4.28A2.91,2.91,0,0,1,229,91.88H157.88A2.94,2.94,0,0,1,155.19,90l-1.73-4.26a2.94,2.94,0,0,0-2.69-1.88H109a3.73,3.73,0,0,0-3.59,3.88V105h176V88.14A4.22,4.22,0,0,0,277.3,83.88Z" style="opacity:0.30000000000000004"></path><rect x="105.4" y="105.03" width="176" height="47.69" style="fill:#fff;opacity:0.4"></rect><circle cx="128.98" cy="128.87" r="12.61" transform="translate(-53.35 128.95) rotate(-45)" style="fill:#fff;opacity:0.4"></circle><circle cx="160.89" cy="128.87" r="12.61" transform="translate(-1.5 255.85) rotate(-76.72)" style="fill:#fff;opacity:0.4"></circle><circle cx="192.81" cy="128.87" r="12.61" transform="translate(23.09 286.92) rotate(-76.72)" style="fill:#fff;opacity:0.4"></circle><circle cx="126.12" cy="167.84" r="8.95" style="fill:#fff;opacity:0.4"></circle><circle cx="224.72" cy="128.87" r="12.61" transform="translate(-25.31 196.65) rotate(-45)" style="fill:#fff;opacity:0.4"></circle><circle cx="256.64" cy="128.87" r="12.61" transform="translate(-29.78 108.02) rotate(-22.5)" style="fill:#fff;opacity:0.4"></circle><rect x="117.17" y="186.53" width="152.33" height="107.77" rx="10" style="fill:#4E9257"></rect><rect x="117.17" y="186.53" width="152.33" height="107.77" rx="10" style="fill:#fff;opacity:0.5"></rect><path d="M156.9,304.11h-8.12c-2.05,0-3.94,1.32-3.94,3.37v5.37c0,2,1.89,3.26,3.94,3.26H152l.86,3.44.86-3.44h3.2c2,0,3.94-1.22,3.94-3.26v-5.37C160.84,305.43,158.94,304.11,156.9,304.11Z" style="fill:#fff;opacity:0.4"></path><path d="M133.05,304.36c-3.3-2.95-7.15,1.05-7.15,1.05s-3.86-4-7.15-1.05c-4.7,4.21,2.13,11.74,7.15,13.25C130.91,316.1,137.75,308.57,133.05,304.36Z" style="fill:#fff;opacity:0.4"></path><polygon points="269.5 318.55 264 314.55 258.5 318.55 258.5 303.11 269.5 303.11 269.5 318.55" style="fill:#fff;opacity:0.4"></polygon><rect x="117.17" y="359.99" width="152.33" height="7.3" style="fill:#fff;opacity:0.4"></rect><rect x="117.17" y="344.75" width="61.14" height="7.3" style="fill:#fff;opacity:0.4"></rect><rect x="142.13" y="164.19" width="51.49" height="7.3" style="fill:#fff;opacity:0.4"></rect><rect x="117.17" y="374.87" width="152.33" height="7.3" style="fill:#fff;opacity:0.4"></rect><g style="opacity:0.9"><path d="M123.39,331.49h1.5v1.26h-1.66l-.23,1.86h-1.31l.23-1.86h-1.7l-.23,1.86h-1.3l.23-1.86H117.4v-1.26h1.67l.25-1.88H117.8v-1.26h1.67l.23-1.86H121l-.24,1.86h1.71l.23-1.86H124l-.23,1.86h1.51v1.26h-1.67Zm-1.31,0,.24-1.88h-1.71l-.24,1.88Z" style="fill:#fff"></path><path d="M126,330.55a4.47,4.47,0,0,1,7.75-2.76l-1.21,1.12a2.6,2.6,0,0,0-2-1,2.6,2.6,0,0,0,0,5.2,2.6,2.6,0,0,0,2-1l1.21,1.11a4.46,4.46,0,0,1-7.75-2.75Z" style="fill:#fff"></path><path d="M141.23,331v3.57h-1.81v-3.29c0-1-.46-1.48-1.26-1.48s-1.5.54-1.5,1.69v3.08h-1.81V326h1.81v3a2.73,2.73,0,0,1,2-.74A2.45,2.45,0,0,1,141.23,331Z" style="fill:#fff"></path><path d="M148.38,331.05v3.56h-1.69v-.78a2,2,0,0,1-1.9.87c-1.46,0-2.33-.81-2.33-1.89s.78-1.86,2.68-1.86h1.44c0-.78-.47-1.23-1.44-1.23a3,3,0,0,0-1.8.58l-.65-1.27a4.78,4.78,0,0,1,2.69-.75C147.28,328.28,148.38,329.16,148.38,331.05Zm-1.8,1.59V332h-1.24c-.85,0-1.12.31-1.12.73s.38.76,1,.76A1.34,1.34,0,0,0,146.58,332.64Z" style="fill:#fff"></path><path d="M150,326h1.81v8.6H150Z" style="fill:#fff"></path><path d="M153.51,326h1.81v8.6h-1.81Z" style="fill:#fff"></path><path d="M163.08,332h-4.72a1.65,1.65,0,0,0,1.78,1.25,2.11,2.11,0,0,0,1.57-.6l1,1a3.64,3.64,0,0,1-6.13-2.2,3.17,3.17,0,0,1,3.32-3.21,3.09,3.09,0,0,1,3.25,3.23C163.11,331.65,163.09,331.85,163.08,332ZM158.33,331h3.08a1.56,1.56,0,0,0-3.08,0Z" style="fill:#fff"></path><path d="M170.69,331v3.57h-1.81v-3.29c0-1-.46-1.48-1.26-1.48s-1.5.54-1.5,1.69v3.08h-1.8v-6.24H166v.73a2.75,2.75,0,0,1,2.07-.82A2.44,2.44,0,0,1,170.69,331Z" style="fill:#fff"></path><path d="M178.83,328.37v5.2c0,2.32-1.25,3.38-3.5,3.38a5.13,5.13,0,0,1-3.06-.86l.72-1.29a3.77,3.77,0,0,0,2.2.7c1.28,0,1.83-.58,1.83-1.7v-.27a2.57,2.57,0,0,1-2,.78,3,3,0,1,1,0-6,2.53,2.53,0,0,1,2.07.89v-.8Zm-1.78,2.92a1.64,1.64,0,1,0-1.64,1.53A1.52,1.52,0,0,0,177.05,331.29Z" style="fill:#fff"></path><path d="M186.59,332h-4.72a1.66,1.66,0,0,0,1.79,1.25,2.09,2.09,0,0,0,1.56-.6l1,1a3.64,3.64,0,0,1-6.13-2.2,3.18,3.18,0,0,1,3.33-3.21,3.09,3.09,0,0,1,3.25,3.23C186.63,331.65,186.6,331.85,186.59,332ZM181.85,331h3.07a1.56,1.56,0,0,0-3.07,0Z" style="fill:#fff"></path></g><rect x="125.25" y="93.72" width="2.17" height="2.9" transform="translate(252.67 190.34) rotate(180)" style="fill:#fff;opacity:0.6000000000000001;isolation:isolate"></rect><rect x="121.7" y="92.75" width="2.17" height="3.87" transform="translate(245.58 189.37) rotate(180)" style="fill:#fff;opacity:0.6000000000000001;isolation:isolate"></rect><rect x="118.16" y="91.79" width="2.17" height="4.83" transform="translate(238.5 188.4) rotate(180)" style="fill:#fff;opacity:0.6000000000000001;isolation:isolate"></rect><rect x="114.62" y="90.82" width="2.17" height="5.8" transform="translate(231.41 187.44) rotate(180)" style="fill:#fff;opacity:0.6000000000000001;isolation:isolate"></rect><rect x="260.64" y="92.66" width="1.29" height="2.9" style="fill:#fff;opacity:0.6000000000000001;isolation:isolate"></rect><rect x="262.82" y="91.6" width="10.27" height="5.01" transform="translate(535.9 188.22) rotate(180)" style="fill:#fff;opacity:0.6000000000000001;isolation:isolate"></rect><path d="M105.4,145.34v42.58l96-96H159C143.13,107.71,123.24,127.56,105.4,145.34Z" style="fill:#fff;opacity:0.2"></path><polygon points="191.07 408.88 281.4 318.55 281.4 296.56 169.07 408.88 191.07 408.88" style="fill:#fff;opacity:0.2"></polygon><path d="M192.81,294.3H259.5a10,10,0,0,0,10-10V196.53a10,10,0,0,0-10-10H192.81Z" style="fill:#fff;opacity:0.5"></path><path d="M269.5,206.38v-9.85a10,10,0,0,0-10-10H127.17a10,10,0,0,0-10,10v9.89C140.77,206.57,224.62,206.46,269.5,206.38Z" style="fill:#e0e0e0"></path><path d="M259.5,186.53H192.81v19.95c27.38,0,56.13-.06,76.69-.1v-9.85A10,10,0,0,0,259.5,186.53Z" style="fill:#fafafa;opacity:0.5"></path><path d="M225.84,193.41v6.3h-1.2l-3.14-3.82v3.82h-1.44v-6.3h1.21l3.13,3.83v-3.83Z" style="fill:#4E9257"></path><path d="M226.87,197.29a2.67,2.67,0,1,1,2.66,2.5A2.49,2.49,0,0,1,226.87,197.29Zm3.9,0a1.24,1.24,0,1,0-1.24,1.34A1.23,1.23,0,0,0,230.77,197.29Z" style="fill:#4E9257"></path><path d="M240.77,194.87,239,199.71h-1.35l-1.09-3-1.12,3H234.1l-1.75-4.84h1.32l1.15,3.28,1.18-3.28h1.19l1.16,3.28,1.17-3.28Z" style="fill:#4E9257"></path><path d="M128.68,192.59v6.31h-1.46v-5.14H126v-1.17Z" style="fill:#4E9257"></path><path d="M129.77,195.74c0-2.07,1.16-3.25,2.71-3.25s2.7,1.18,2.7,3.25S134,199,132.48,199,129.77,197.82,129.77,195.74Zm3.94,0c0-1.43-.51-2-1.23-2s-1.23.59-1.23,2,.5,2,1.23,2S133.71,197.18,133.71,195.74Z" style="fill:#4E9257"></path><path d="M141.85,196.66v2.24h-1.46v-2.25L138,192.59h1.55l1.69,2.8,1.68-2.8h1.43Z" style="fill:#4E9257"></path><path d="M149,196.87h-3.67a1.3,1.3,0,0,0,1.39,1,1.61,1.61,0,0,0,1.21-.47l.75.81a2.82,2.82,0,0,1-4.76-1.71,2.46,2.46,0,0,1,2.58-2.49,2.39,2.39,0,0,1,2.52,2.51C149,196.6,149,196.75,149,196.87Zm-3.68-.82h2.38a1.16,1.16,0,0,0-1.19-1A1.14,1.14,0,0,0,145.31,196.05Z" style="fill:#4E9257"></path><path d="M154.1,196.13v2.77h-1.32v-.61a1.58,1.58,0,0,1-1.47.68c-1.14,0-1.81-.63-1.81-1.47s.6-1.45,2.08-1.45h1.11c0-.6-.36-1-1.11-1a2.32,2.32,0,0,0-1.4.45l-.5-1a3.7,3.7,0,0,1,2.09-.59C153.24,194,154.1,194.66,154.1,196.13Zm-1.41,1.24v-.5h-1c-.66,0-.86.24-.86.57s.29.58.79.58A1,1,0,0,0,152.69,197.37Z" style="fill:#4E9257"></path><path d="M158.37,194v1.3l-.31,0a1.19,1.19,0,0,0-1.29,1.35v2.29h-1.41v-4.85h1.35v.64A1.93,1.93,0,0,1,158.37,194Z" style="fill:#4E9257"></path><path d="M158.76,198.45l.46-1a3.34,3.34,0,0,0,1.69.47c.65,0,.89-.18.89-.45,0-.79-2.93,0-2.93-1.91,0-.92.83-1.57,2.24-1.57a4,4,0,0,1,1.87.42l-.47,1a2.78,2.78,0,0,0-1.4-.36c-.63,0-.9.2-.9.45,0,.83,2.93,0,2.93,1.94,0,.9-.84,1.54-2.29,1.54A4.2,4.2,0,0,1,158.76,198.45Z" style="fill:#4E9257"></path><path d="M170.8,197.55h-2.93l-.56,1.35h-1.49l2.81-6.31h1.44l2.82,6.31h-1.54Zm-.46-1.11-1-2.41-1,2.41Z" style="fill:#4E9257"></path><path d="M178.39,194.05v4c0,1.8-1,2.62-2.72,2.62a4,4,0,0,1-2.37-.66l.55-1a2.93,2.93,0,0,0,1.71.55c1,0,1.43-.45,1.43-1.32v-.21a2,2,0,0,1-1.53.6,2.34,2.34,0,1,1,0-4.68,2,2,0,0,1,1.6.69v-.62ZM177,196.32a1.27,1.27,0,1,0-1.26,1.19A1.17,1.17,0,0,0,177,196.32Z" style="fill:#4E9257"></path><path d="M179.33,196.47A2.67,2.67,0,1,1,182,199,2.5,2.5,0,0,1,179.33,196.47Zm3.9,0a1.24,1.24,0,1,0-1.23,1.35A1.22,1.22,0,0,0,183.23,196.47Z" style="fill:#4E9257"></path><path d="M260.55,294.3c-.64-2.1-2-6.6-4.85-15.54-4.46-14.14-10.37-14-10.37-14l-1.06,11.87s.66,10,1.21,17.69Z" style="fill:#4E9257"></path><path d="M222,220.12s5.95-7.61,16.5-3.72,11.58,19.92,10.25,28.18-2.84,11.49-1.13,12.82c0,0-9.47,4.19-14.58.63s-3.28-10.48-3.28-10.48l2-7.68Z" style="fill:#263238"></path><path d="M222,220.7S214.9,219,213,236.64c-2.09,19.7,3.15,22.55,15,22.44a27.83,27.83,0,0,1,0-9.47c.93-4.59-1.81-24.46-1.81-24.46Z" style="fill:#263238"></path><path d="M211.44,280.82c1.06,4.46,1.87,8.32,2.48,11.76.11.58.21,1.16.31,1.72h39.16A77,77,0,0,0,252,277.48c-.46-2.49-1-4.61-1.48-6.34a10.44,10.44,0,0,0-8.44-7.49c-1-.15-2.14-.28-3.4-.35a112.3,112.3,0,0,0-16,.6,103.37,103.37,0,0,0-14.92,2.55c.65,2.35,1.23,4.57,1.77,6.66C210.23,275.87,210.87,278.43,211.44,280.82Z" style="fill:#4E9257"></path><g style="opacity:0.2"><path d="M211.44,280.82c1.06,4.46,1.87,8.32,2.48,11.76.11.58.21,1.16.31,1.72h39.16A77,77,0,0,0,252,277.48c-.46-2.49-1-4.61-1.48-6.34a10.44,10.44,0,0,0-8.44-7.49c-1-.15-2.14-.28-3.4-.35a112.3,112.3,0,0,0-16,.6,103.37,103.37,0,0,0-14.92,2.55c.65,2.35,1.23,4.57,1.77,6.66C210.23,275.87,210.87,278.43,211.44,280.82Z"></path></g><path d="M235.21,269.41c-8.64-1.7-11-5.6-11-5.6,5.89-4.85,1.91-14.2,1.91-14.2l10.35,2.67a31.24,31.24,0,0,0-.71,4.39c-.51,6.36,2.37,6.62,2.37,6.62C239.73,266.86,235.21,269.41,235.21,269.41Z" style="fill:#e4897b"></path><path d="M236.46,252.28a31.24,31.24,0,0,0-.71,4.39c-7.08-.48-9.64-7.06-9.64-7.06Z" style="opacity:0.2;isolation:isolate"></path><path d="M232.65,222.55c9.15.12,12,5.06,12.58,14.5.69,11.8-2,20.14-13.44,17.47C216.29,250.91,217.45,222.36,232.65,222.55Z" style="fill:#e4897b"></path><path d="M239.32,236.46a19.24,19.24,0,0,0,2.62,3.83,2.52,2.52,0,0,1-2.43,1Z" style="fill:#de5753"></path><path d="M233.72,230.2s-2.57-.37-4,1.33" style="fill:none;stroke:#263238;stroke-linecap:round;stroke-linejoin:round;stroke-width:0.707336px"></path><path d="M240.38,229.9a4.27,4.27,0,0,1,3.64.8" style="fill:none;stroke:#263238;stroke-linecap:round;stroke-linejoin:round;stroke-width:0.707336px"></path><path d="M222.45,237.85s6.61-6.61,6-12.43c0,0,16-8,16.66,10.4,0,0,2-16.33-13.74-16.89s-16,22.45-7.93,29.41C223.47,248.34,219.74,242.52,222.45,237.85Z" style="fill:#263238"></path><path d="M223.92,239.8a4,4,0,0,0-4.28-3.72c-2.84.27-4.26,6.08,2.77,7.57C223.42,243.86,224,242.88,223.92,239.8Z" style="fill:#e4897b"></path><path d="M241.54,244.37a24.32,24.32,0,0,0,.09,3.35c-.19.05-.38.11-.57.15-2.59.66-4,.12-4.81-.69a3.57,3.57,0,0,1-.8-1.43,3.19,3.19,0,0,1-.15-.92,12.57,12.57,0,0,0,5.36-.25C241.2,244.47,241.54,244.37,241.54,244.37Z" style="fill:#263238"></path><path d="M240.67,244.58v1c-2.2.62-4.21.73-5.17.18a3.79,3.79,0,0,1-.17-.92A12.29,12.29,0,0,0,240.67,244.58Z" style="fill:#fff"></path><path d="M241.06,247.87c-2.59.66-4,.12-4.81-.69a8.43,8.43,0,0,1,3-.17A3.28,3.28,0,0,1,241.06,247.87Z" style="fill:#de5753"></path><path d="M226.25,224.57s9.92,4.28,17.14,3-6.22-7.48-6.22-7.48l-6.87-.47Z" style="fill:#263238"></path><path d="M228.66,223.73a3.88,3.88,0,0,1,.42,1.05c.09.33.14.66.2,1a11.83,11.83,0,0,1,.1,2,15.91,15.91,0,0,1-.65,3.83,22.39,22.39,0,0,1-1.42,3.56c-.28.58-.61,1.12-.92,1.68l-1,1.61.91-1.67c.27-.58.56-1.14.8-1.72a22.13,22.13,0,0,0,1.17-3.59,15.46,15.46,0,0,0,.38-3.7,10.9,10.9,0,0,0-.21-1.82,8.6,8.6,0,0,0-.24-.87,3.17,3.17,0,0,0-.31-.7Z" style="fill:#263238"></path><path d="M227.72,223.9c.43.33.65.59,1,.87s.6.54.9.8a18,18,0,0,0,1.94,1.44,11.23,11.23,0,0,0,4.49,1.72,11.39,11.39,0,0,1-4.74-1.29,16.51,16.51,0,0,1-2.14-1.27c-.34-.23-.68-.48-1-.73s-.69-.53-.93-.68Z" style="fill:#263238"></path><path d="M230.88,294.3c0-18.14-6.68-30.49-6.68-30.49l-.09-.05c-.48.05-1,.08-1.44.14a103.37,103.37,0,0,0-14.92,2.55s6.77,14.55,7.55,27.85Z" style="fill:#4E9257"></path><path d="M230.88,294.3c0-18.14-6.68-30.49-6.68-30.49l-.09-.05c-.48.05-1,.08-1.44.14a103.37,103.37,0,0,0-14.92,2.55s6.77,14.55,7.55,27.85Z" style="fill:#fff;opacity:0.4"></path><path d="M243.39,294.26v0H254c-.43-4.63-.79-8.28-.79-8.28l0-.35a75,75,0,0,0-1.15-8.19c-.46-2.49-1-4.61-1.48-6.34a10.44,10.44,0,0,0-8.44-7.49c-1-.15-2.14-.28-3.4-.35h-.54C238.15,263.37,244.44,274.71,243.39,294.26Z" style="fill:#4E9257"></path><path d="M243.39,294.26v0H254c-.43-4.63-.79-8.28-.79-8.28l0-.35a75,75,0,0,0-1.15-8.19c-.46-2.49-1-4.61-1.48-6.34a10.44,10.44,0,0,0-8.44-7.49c-1-.15-2.14-.28-3.4-.35h-.54C238.15,263.37,244.44,274.71,243.39,294.26Z" style="fill:#fff;opacity:0.4"></path><path d="M217.23,294.3c-.41-11.3,0-28.57-9.48-27.85,0,0-6,.29-6.23,14.41a83.39,83.39,0,0,0,1,13.44Z" style="fill:#4E9257"></path><path d="M234.34,235.18c0,.7-.37,1.28-.84,1.28s-.86-.56-.86-1.26.36-1.28.83-1.29S234.33,234.47,234.34,235.18Z" style="fill:#263238"></path><path d="M233.28,234l1.53-.62S234.06,234.63,233.28,234Z" style="fill:#263238"></path><path d="M242.56,234.57c0,.7-.37,1.28-.84,1.28s-.86-.56-.87-1.26.37-1.29.84-1.29S242.55,233.86,242.56,234.57Z" style="fill:#263238"></path><path d="M241.5,233.34l1.52-.62S242.27,234,241.5,233.34Z" style="fill:#263238"></path><path d="M244.54,230a5,5,0,0,0-5,4.61,2.73,2.73,0,0,0-1.89,0,4.89,4.89,0,1,0,.09.84c0-.1,0-.19,0-.28a2.2,2.2,0,0,1,1.81,0,5,5,0,1,0,5-5.19Zm-11.76,9.9a4.45,4.45,0,1,1,4.44-4.44A4.44,4.44,0,0,1,232.78,239.86Zm11.76-.46A4.45,4.45,0,1,1,249,235,4.45,4.45,0,0,1,244.54,239.4Z" style="fill:#e0e0e0"></path><path d="M162.15,271.46s6.37,1.6,8.69,6.21,2.76,16.65,2.76,16.65h-6.29Z" style="fill:#4E9257"></path><path d="M138.6,262.68a4.38,4.38,0,0,0-3.69,2.8,6.13,6.13,0,0,0,.42,5.34l.49-.68a3.83,3.83,0,0,0,3.14,3.3,4,4,0,0,0,1.52-3.48,2.8,2.8,0,0,1,.35,1.09,3.62,3.62,0,0,0,1.54-2.69,7.21,7.21,0,0,0-.48-3.61l-1.56-1.33Z" style="fill:#263238"></path><path d="M139.1,261.19l-.66,1.74s.58,1.48,3.29,2.07l1.18-1.67Z" style="fill:#4E9257"></path><path d="M166.31,262.68a4.4,4.4,0,0,1,3.7,2.8,6.13,6.13,0,0,1-.42,5.34l-.49-.68a3.85,3.85,0,0,1-3.15,3.3,4,4,0,0,1-1.51-3.48,2.93,2.93,0,0,0-.36,1.09,3.65,3.65,0,0,1-1.54-2.69,7.28,7.28,0,0,1,.49-3.61l1.56-1.33Z" style="fill:#263238"></path><path d="M165.81,261.19l.66,1.74s-.58,1.48-3.28,2.07L162,263.33Z" style="fill:#4E9257"></path><path d="M147.34,235s-11.39,2.92-10.52,18.37c.73,12.87,10.52,12.14,10.52,12.14l8.54-19.17Z" style="fill:#263238"></path><path d="M138.88,284.23c.8,3.34,1.4,6.23,1.86,8.8.08.44.16.87.23,1.29h29.3a55.13,55.13,0,0,0-1.05-12.58c-.89-4.44-4.4-9.89-7.42-10.35-.76-.12-1.6-.21-2.55-.27a85.26,85.26,0,0,0-12,.45A66.57,66.57,0,0,0,137,273.38c.49,1.75,0,3.52.44,5.09C138,280.53,138.45,282.45,138.88,284.23Z" style="fill:#4E9257"></path><g style="opacity:0.2"><path d="M138.88,284.23c.8,3.34,1.4,6.23,1.86,8.8.08.44.16.87.23,1.29h29.3a55.13,55.13,0,0,0-1.05-12.58c-.89-4.44-4.4-9.89-7.42-10.35-.76-.12-1.6-.21-2.55-.27a85.26,85.26,0,0,0-12,.45A66.57,66.57,0,0,0,137,273.38c.49,1.75,0,3.52.44,5.09C138,280.53,138.45,282.45,138.88,284.23Z"></path></g><path d="M157.08,277.67c-8.64-1.71-11-6-11-6,5.88-4.84,1.85-13.82,1.85-13.82l10.36,2.67a31.36,31.36,0,0,0-.71,4.38c-.51,6.37,2.24,6.25,2.24,6.25C161.47,274.74,157.08,277.67,157.08,277.67Z" style="fill:#e4897b"></path><path d="M158.31,270.09a7.56,7.56,0,0,1-.74-4.11l-8.26-2.13c0,.27,0,.53,0,.81A15.73,15.73,0,0,0,158.31,270.09Z" style="opacity:0.2;isolation:isolate"></path><path d="M153.48,238c11.37,0,13.87,4.88,13.77,14.34-.11,10.35-3.26,16.76-14.73,15.07C136.77,265.12,138.28,238,153.48,238Z" style="fill:#e4897b"></path><path d="M159.61,253a19.24,19.24,0,0,0,2.62,3.83,2.52,2.52,0,0,1-2.43,1Z" style="fill:#de5753"></path><path d="M154.55,246.74s-2.57-.37-4,1.33" style="fill:none;stroke:#263238;stroke-linecap:round;stroke-linejoin:round;stroke-width:0.707336px"></path><path d="M161.21,246.44a4.27,4.27,0,0,1,3.64.8" style="fill:none;stroke:#263238;stroke-linecap:round;stroke-linejoin:round;stroke-width:0.707336px"></path><path d="M155.17,251.72c0,.7-.37,1.28-.84,1.28s-.86-.56-.86-1.26.36-1.28.83-1.29S155.16,251,155.17,251.72Z" style="fill:#263238"></path><path d="M164.24,250.9c0,.7-.37,1.28-.84,1.28s-.86-.56-.87-1.26.37-1.28.84-1.29S164.23,250.19,164.24,250.9Z" style="fill:#263238"></path><path d="M165.37,246.5a5,5,0,0,0-5,4.61,2.73,2.73,0,0,0-1.89,0,4.89,4.89,0,1,0,.09.84c0-.1,0-.19,0-.28a2.2,2.2,0,0,1,1.81,0,5,5,0,1,0,5-5.19Zm-11.76,9.9a4.45,4.45,0,1,1,4.44-4.44A4.45,4.45,0,0,1,153.61,256.4Zm11.76-.46a4.45,4.45,0,1,1,4.44-4.44A4.45,4.45,0,0,1,165.37,255.94Z" style="fill:#e0e0e0"></path><path d="M162,262.32h0a5.81,5.81,0,0,1-5.19-.92.2.2,0,0,1,.25-.31h0a5.46,5.46,0,0,0,4.82.84.2.2,0,0,1,.25.12v0a.19.19,0,0,1-.12.24Z" style="fill:#263238"></path><path d="M153.84,260.57a3.28,3.28,0,1,1-3.28-3.27A3.28,3.28,0,0,1,153.84,260.57Z" style="fill:#de5753;opacity:0.30000000000000004"></path><path d="M152.22,234.25c-15.7-.66-15.95,22.46-7.92,29.42,0,0-3.73-5.82-1-10.49a9.36,9.36,0,0,0,4.86-6.92,6.49,6.49,0,0,0,5.31-3.52c3.25,1.27,8,2.49,12.47,1.35a.28.28,0,0,0,0-.06,17.84,17.84,0,0,1,1.34,6.66S169.08,235,152.22,234.25Z" style="fill:#263238"></path><path d="M145.31,254a2.92,2.92,0,0,0-3.11-2.71c-2.06.2-3.1,4.42,2,5.51C145,256.92,145.37,256.21,145.31,254Z" style="fill:#e4897b"></path><path d="M137.92,273.32s-4.15-.59-4.45,5.77a93.19,93.19,0,0,0,1.06,15.23h8.94S143.31,273.89,137.92,273.32Z" style="fill:#4E9257"></path></g><g id="freepik--Love--inject-70"><path d="M322.89,58.74c-10.73-9.61-23.29,3.42-23.29,3.42s-12.56-13-23.3-3.42C261,72.44,283.25,97,299.6,101.91,315.94,97,338.21,72.44,322.89,58.74Z" style="fill:#4E9257"></path><path d="M322.89,58.74c-10.73-9.61-23.29,3.42-23.29,3.42s-12.56-13-23.3-3.42C261,72.44,283.25,97,299.6,101.91,315.94,97,338.21,72.44,322.89,58.74Z" style="fill:#fff;opacity:0.6000000000000001;isolation:isolate"></path></g></svg>